<?xml version="1.0" encoding="utf-8"?>
<!-- Generator: Adobe Illustrator 22.0.0, SVG Export Plug-In . SVG Version: 6.00 Build 0)  -->
<svg version="1.1" id="Layer_1" xmlns="http://www.w3.org/2000/svg" xmlns:xlink="http://www.w3.org/1999/xlink" x="0px" y="0px"
	 viewBox="0 0 18 18" style="enable-background:new 0 0 18 18;" xml:space="preserve">
<style type="text/css">
	.st0{fill:#4C6A8D;}
</style>
<g id="Layer_1_1_">
	<path class="st0" d="M11.1,1.009H6.8c-1,0-1.8,0.809-1.8,1.82v1.517h3.9v0.506H2.8c-1,0-1.8,0.809-1.8,1.82v4.348
		c0,1.011,0.8,1.82,1.8,1.82l0,0h1.6v-1.921c0-0.708,0.3-1.315,0.8-1.719C5.6,8.897,6.3,8.694,7,8.694h4.1
		c0.4-0.101,0.8-0.202,1.1-0.506c0.3-0.202,0.5-0.607,0.6-1.011V2.829C13,1.818,12.2,1.009,11.1,1.009
		C11.2,1.009,11.2,1.009,11.1,1.009z M6.7,3.335C6.3,3.335,6,3.031,6,2.627s0.3-0.708,0.7-0.708s0.7,0.303,0.7,0.708
		S7.1,3.335,6.7,3.335z"/>
	<path class="st0" d="M6.9,16.986h4.2c1,0,1.8-0.809,1.8-1.82v-1.517H9.1v-0.607h6.1c1,0,1.8-0.809,1.8-1.82l0,0V6.874
		c0-1.011-0.8-1.82-1.8-1.82h-1.6v1.618c0.1,0.708-0.1,1.416-0.6,1.921C12.5,8.998,11.8,9.2,11,9.2H6.7
		C6.3,9.301,5.9,9.503,5.6,9.706c-0.3,0.303-0.5,0.607-0.5,1.112v4.247C5.1,16.177,5.9,16.986,6.9,16.986L6.9,16.986z M11.3,14.559
		c0.4,0,0.7,0.303,0.7,0.708s-0.3,0.708-0.7,0.708s-0.7-0.303-0.7-0.708S10.9,14.559,11.3,14.559z"/>
</g>
</svg>
